<?xml version="1.0" encoding="utf-8"?>
<!-- Generator: Adobe Illustrator 19.0.0, SVG Export Plug-In . SVG Version: 6.00 Build 0)  -->
<svg version="1.1" xmlns="http://www.w3.org/2000/svg" xmlns:xlink="http://www.w3.org/1999/xlink" x="0px" y="0px"
	 viewBox="0 0 850 850" style="enable-background:new 0 0 850 850;" xml:space="preserve">
<style type="text/css">
	.st0{display:none;}
	.st1{display:inline;fill:#F7C911;stroke:#030303;stroke-width:7.0927;stroke-miterlimit:10;}
	.st2{display:inline;fill:#F7C911;stroke:#030303;stroke-width:7.3741;stroke-miterlimit:10;}
	.st3{display:inline;fill:#F8991D;stroke:#030303;stroke-width:7.0927;stroke-miterlimit:10;}
	.st4{display:inline;fill:#F8991D;stroke:#030303;stroke-width:7.3741;stroke-miterlimit:10;}
	.st5{display:inline;fill:#F26A21;stroke:#030303;stroke-width:7.4666;stroke-miterlimit:10;}
	.st6{display:inline;fill:#F26A21;stroke:#030303;stroke-width:7.3741;stroke-miterlimit:10;}
	.st7{fill:#EF3824;stroke:#030303;stroke-width:7;stroke-miterlimit:10;}
</style>
<g id="Layer_1" class="st0">
	<circle id="XMLID_5_" class="st1" cx="427.4" cy="425.1" r="162.5"/>
	<path id="XMLID_4_" class="st2" d="M330.7,555.7l-22.5-20.2c0,0-5.1,27.8,2.8,44.6c7.9,16.8,2.6,51.6-8.6,64.9s-28,22.7-43.7-1.6
		c-15.7-24.3,10.2-43,15.7-58.1c5.6-15.1,7.3-87.4,7.3-87.4l-12.2-34"/>
	<path id="XMLID_3_" class="st2" d="M585.1,464.2L574,495.1c0,0,9.8,173.1,11.6,184.6s21.2,53,2.9,70.7c-3.2,4.9-24.2,22.1-42.6,0.9
		c-18.4-21.2-12.9-43-1.9-70.6c11-27.6,1.4-144,1.4-144l-26.1,22.4"/>
</g>
<g id="Layer_2" class="st0">
	<circle id="XMLID_111_" class="st3" cx="425" cy="424.4" r="110.7"/>
	<path id="XMLID_110_" class="st4" d="M369.4,520.1l-5.1-3.2c0,0,14,115.7,15.8,126.7c1.7,11,8.7,46.3,0,60c-8.7,13.7-36,23-45,0
		s4-48,5.3-66.3c1.3-18.3-6.6-145.2-7-150.8c-4.1-6.6-9.7-17.5-9.7-17.5"/>
	<path id="XMLID_109_" class="st4" d="M516.4,486.8c-2.3,5-12.6,15.3-12.6,15.3s9.5,35.9,11.8,47.8c2.3,11.9,5.2,36.7,0,43.3
		c-5.2,6.6-21,13.3-34.3,4.7c-13.3-8.7-15-14.3-7.7-38c9.1-24.8-3.1-34.6-3.1-34.6l-17.1,6.1"/>
</g>
<g id="Layer_3" class="st0">
	<circle id="XMLID_114_" class="st5" cx="425" cy="426.4" r="66.5"/>
	<circle id="XMLID_113_" class="st5" cx="425" cy="426.4" r="66.5"/>
	<path id="XMLID_112_" class="st6" d="M429,492.8c0,0-5.5,0.1-7.1,0.1c-3.3,3.4,2.1,20.3,5.6,35.2c3.5,14.9,11.7,21.9,9.6,33.3
		c-3.1,10.1-16,17.8-30.2,7.2c-14.2-10.7-7.3-21.9-8.8-37.3s-12.5-46.7-20.2-57.6c-2-2.4-4.9-5.7-4.9-5.7"/>
</g>
<g id="Layer_4">
	<circle id="XMLID_115_" class="st7" cx="425" cy="425" r="28.5"/>
</g>
</svg>
