<?xml version="1.0" encoding="utf-8"?>
<!-- Generator: Adobe Illustrator 19.0.0, SVG Export Plug-In . SVG Version: 6.00 Build 0)  -->
<svg version="1.1" id="Layer_1" xmlns="http://www.w3.org/2000/svg" xmlns:xlink="http://www.w3.org/1999/xlink" x="0px" y="0px"
	 viewBox="0 0 850 850" style="enable-background:new 0 0 850 850;" xml:space="preserve">
<style type="text/css">
	.st0{fill:#F2EA23;stroke:#030303;stroke-width:7.3741;stroke-miterlimit:10;}
</style>
<circle id="XMLID_5_" class="st0" cx="424.1" cy="425.6" r="214"/>
<path id="XMLID_4_" class="st0" d="M318.4,611.7l-32.8-23c0,0-4.2,125.7-0.9,145.9s11.1,53.1,1,65.1c-10.1,12-30.9,18.1-42-1.9
	c-11.1-20-11-33-1.6-73.2c6.5-44.2,1.4-184.3,1.4-184.3l-15.9-30"/>
<path id="XMLID_3_" class="st0" d="M514.7,619.5l-33.3,12.3c0,0-3.9,90.7,9.1,123.3c3.5,7,18.3,48.9,4.8,70.3
	c-13.5,21.4-33.7,14-47-2.2c-13.3-16.1-5.6-35.8,0.3-71.6s-5.8-112.9-5.8-112.9l-40.5,0"/>
<path id="XMLID_2_" class="st0" d="M585.4,566.3l16.4-21.3c0,0,0.2,61-3.4,74.1c-3.6,13.1-14.9,44.4-2.9,63.4
	c11.9,19.1,27.7,18.3,41.1-2.1c8.6-23.6-1.6-30.1-6.9-67.4c-5.3-37.3,5-149.1,5-149.1l3.4-35.2"/>
</svg>
