<?xml version="1.0" encoding="utf-8"?>
<!-- Generator: Adobe Illustrator 19.0.0, SVG Export Plug-In . SVG Version: 6.00 Build 0)  -->
<svg version="1.1" id="Layer_1" xmlns="http://www.w3.org/2000/svg" xmlns:xlink="http://www.w3.org/1999/xlink" x="0px" y="0px"
	 viewBox="0 0 570 570" style="enable-background:new 0 0 570 570;" xml:space="preserve">
<style type="text/css">
	.st0{fill:#F7C911;stroke:#030303;stroke-width:6.6202;stroke-miterlimit:10;}
</style>
<ellipse id="XMLID_58_" class="st0" cx="285.1" cy="285.1" rx="151" ry="152.4"/>
<path id="XMLID_57_" class="st0" d="M140.5,328.9c0,0,4.5,9.7,5.4,15.2c0.9,5.5-5.7,15.6-1.1,24.4c4.7,8.8,19.3,5.4,22.5,11.9
	c3.3,3.7,9.5,10.9,9.5,10.9"/>
<path id="XMLID_56_" class="st0" d="M134.2,289.6c0,0,1.6-18.9,0.8-20.5c-0.8-1.5-10.7-5.2-24.6-5.5c-13.8-0.3-20.6,9.3-32.6,0.7
	c-4.9-4-12.3-23,2.3-32.6c14.7-9.6,27.7-4.1,34.3,1.6s24.4,12.1,26,8c1.6-4.1,8.8-22.7,8.8-22.7"/>
<path id="XMLID_55_" class="st0" d="M409.9,199.2c0,0,6,10.7,9,15c3,4.4,22.6,14,29.3,22c6.7,8,8.3,28.5,5,38.7
	c-3.3,10.2-16.7,16.3-17.5,22.1c-0.7,5.7-1.9,15-1.9,15"/>
<path id="XMLID_54_" class="st0" d="M227,144.4c0,0,9.7-2.7,12.9-4.8s18.5-20.9,24.2-24.4c5.7-3.5,15-7,25-1.3
	c10,5.7,11,19.5,18,20.4s10.7,2,10.7,2"/>
</svg>
