<?xml version="1.0" encoding="utf-8"?>
<!-- Generator: Adobe Illustrator 19.0.0, SVG Export Plug-In . SVG Version: 6.00 Build 0)  -->
<svg version="1.1" id="Layer_1" xmlns="http://www.w3.org/2000/svg" xmlns:xlink="http://www.w3.org/1999/xlink" x="0px" y="0px"
	 viewBox="0 0 570 570" style="enable-background:new 0 0 570 570;" xml:space="preserve">
<style type="text/css">
	.st0{fill:#F2EA23;stroke:#030303;stroke-width:6.5383;stroke-miterlimit:10;}
</style>
<circle id="XMLID_74_" class="st0" cx="284.1" cy="285.1" r="189.7"/>
<path id="XMLID_73_" class="st0" d="M159.8,428.4c0,0-8.7-14-16.9-16.6s-34.7,18.8-40.1,31.5c-5.4,12.7-9.2,22.3-24.5,22.3
	s-24.9-14.6-21.3-23.9s19.8-14.2,26.4-20.4c6.7-6.2,39.6-28.7,39.4-36.3c-0.2-7.6-14.4-28.2-14.4-28.2"/>
<path id="XMLID_72_" class="st0" d="M269.1,474.2c0,0-15.5-3.8-22.8-3.2c-7.3,0.6-22.4,15.9-43.4,3.8c-21-12.1-20.3-29.1-24.5-32.2
	c-4.2-3.1-13.8-10.2-13.8-10.2"/>
<path id="XMLID_71_" class="st0" d="M95.5,264.2c0,0-1.1,21.9-1.1,29.6s-8.8,15.3-6.5,23.9c2.2,8.6,11.6,13.5,13.6,18.8
	c2,5.4,9.3,24.7,9.3,24.7"/>
<path id="XMLID_70_" class="st0" d="M224.7,104.8c0,0-15.1,8.5-19.8,7.8c-4.6-0.7-20.5,0.3-23.8-9.6c-1.9-5.8,3.2-24.9-12.7-31.2
	c-17.8-4.1-30.7,10.8-26.8,21c3.8,10.2,18.8,18.5,22.1,24.2c3.2,5.7-0.8,19.3-3.7,24.6c-2.9,5.3-16,15.6-16,15.6"/>
<path id="XMLID_69_" class="st0" d="M414.2,146.9c-6-5.4-19.5-12.3-20.8-17c-1.3-4.7,8.9-17.4,0-27.6s-23.4-12.4-34-12.4
	c-10.6,0-19,10.5-24,12.4c-5,1.9-24-5.1-24-5.1"/>
<path id="XMLID_68_" class="st0" d="M464.8,343.3c0,0,2.5-19.1,5.8-22.8c3.3-3.7,23.9-8.5,37.9-11c14-2.5,32.2,10.4,46.5,3.3
	s14.7-29.1,0-34.2c-14.7-5.1-43.3-0.6-51.9-1.3s-25.1-7.2-30.1-11.2c-2.6-5.3-4.8-27.6-4.8-27.6"/>
<path id="XMLID_67_" class="st0" d="M384.5,446.1c0,0,14.2-11.8,20.1-14.5s24.1,3.5,36.2-12.2c12.1-15.7,6.9-32.2,7-38.4
	c0-6.2,10.1-19.7,10.1-19.7"/>
</svg>
