<?xml version="1.0" encoding="utf-8"?>
<!-- Generator: Adobe Illustrator 19.0.0, SVG Export Plug-In . SVG Version: 6.00 Build 0)  -->
<svg version="1.1" id="Layer_1" xmlns="http://www.w3.org/2000/svg" xmlns:xlink="http://www.w3.org/1999/xlink" x="0px" y="0px"
	 viewBox="0 0 850 850" style="enable-background:new 0 0 850 850;" xml:space="preserve">
<style type="text/css">
	.st0{fill:#F7C911;stroke:#030303;stroke-width:7.0927;stroke-miterlimit:10;}
	.st1{fill:#F7C911;stroke:#030303;stroke-width:7.3741;stroke-miterlimit:10;}
</style>
<circle id="XMLID_5_" class="st0" cx="427.4" cy="425.1" r="162.5"/>
<path id="XMLID_4_" class="st1" d="M330.7,555.7l-22.5-20.2c0,0-5.1,27.8,2.8,44.6c7.9,16.8,2.6,51.6-8.6,64.9s-28,22.7-43.7-1.6
	c-15.7-24.3,10.2-43,15.7-58.1c5.6-15.1,7.3-87.4,7.3-87.4l-12.2-34"/>
<path id="XMLID_3_" class="st1" d="M585.1,464.2L574,495.1c0,0,9.8,173.1,11.6,184.6s21.2,53,2.9,70.7c-3.2,4.9-24.2,22.1-42.6,0.9
	c-18.4-21.2-12.9-43-1.9-70.6c11-27.6,1.4-144,1.4-144l-26.1,22.4"/>
</svg>
