<?xml version="1.0" encoding="utf-8"?>
<!-- Generator: Adobe Illustrator 19.0.0, SVG Export Plug-In . SVG Version: 6.00 Build 0)  -->
<svg version="1.1" xmlns="http://www.w3.org/2000/svg" xmlns:xlink="http://www.w3.org/1999/xlink" x="0px" y="0px"
	 viewBox="0 0 570 570" style="enable-background:new 0 0 570 570;" xml:space="preserve">
<style type="text/css">
	.st0{fill:#030303;}
	.st1{fill:#F8991D;stroke:#030303;stroke-width:7.0927;stroke-miterlimit:10;}
	.st2{fill:#F8991D;stroke:#030303;stroke-width:7.467;stroke-miterlimit:10;}
</style>
<g id="Layer_2">
	<path id="XMLID_60_" class="st0" d="M182.3,237.9c-1.3,2.1-1.5,4.5-2.6,6.6c-0.5,0.9-1.1,1.7-1.4,2.7c-0.5,1.3-0.6,2.7-1.2,3.9
		c-2.1,4,3.9,7.5,6,3.5c1.1-2.1,1.4-4.5,2.6-6.6c1.2-2.1,1.4-4.6,2.6-6.6C190.8,237.6,184.7,234.1,182.3,237.9z"/>
</g>
<g id="Layer_1">
	<circle id="XMLID_58_" class="st1" cx="286.2" cy="285.8" r="110.7"/>
	<path id="XMLID_57_" class="st2" d="M251.3,180.8c0,0-4.2,1.5-13.6,5.5c-6.5-0.5-11.9-8.9-26-6.5c-13.2,3.8-22.2,13-26.2,28.2
		c-4,15.2,1.6,21.5,1,29.7c-4.5,10.8-3.7,8.7-3.7,8.7"/>
	<path id="XMLID_56_" class="st2" d="M369.8,213.1c0,0-2.7-1.3-8.4-8.6c-2.4-6.9,3.6-27.2,12.5-45s7.8-15.9,7.3-26
		s-18.6-22.3-30.3-7.6c-5.4,9.3,2.4,18.7-8.6,32.8c-10.9,14.1-14.6,24.7-18,23.2c-7-2.3-14.4-4.2-14.4-4.2"/>
	<path id="XMLID_55_" class="st2" d="M396.7,280c0,0-1.6,10.8-0.2,14.5c1.4,3.8,22.9,11.4,28.1,10.3c5.2-1.2,18.5,4.1,22.1,9.6
		c3.6,5.5,7.7,18.3-3.3,27.9s-24.9,0.6-32.7-7.9c-7.8-8.5-21.2-8.2-23.2-4.5c-1.9,3.8-6.6,12.9-6.6,12.9"/>
	<path id="XMLID_54_" class="st2" d="M217.4,372.5c0,0,9.3,3.8,10.8,7.6s-7.5,23.8-12.9,29.3c-5.4,5.4-15.8,15.2-8.6,32.3
		s20.9,18.9,33.1,12.9c12.2-6,12.2-11.1,11.5-28.5c-0.7-17.4,5.8-32.9,10.6-32.2s15.4,2.3,15.4,2.3"/>
	<path id="XMLID_61_" class="st0" d="M182.6,237.7c-1.7,3.6-3.3,7.3-4.7,11.1c-0.1,0.2-0.2,0.4-0.4,0.6c-0.4,0.6-0.5,1.2-0.5,1.8
		c0,0,0,0.1,0,0.1c-1.5,4.3,5.3,6.1,6.7,1.9c0.2-0.4,0.3-0.9,0.5-1.3c1.1-2.1,2.1-4.3,2.7-6.6c0-0.1,0.1-0.3,0.1-0.4
		c0.5-1.2,1.1-2.4,1.6-3.6C190.6,237.2,184.6,233.6,182.6,237.7z"/>
</g>
</svg>
