<?xml version="1.0" encoding="utf-8"?>
<!-- Generator: Adobe Illustrator 19.0.0, SVG Export Plug-In . SVG Version: 6.00 Build 0)  -->
<svg version="1.1" id="Layer_1" xmlns="http://www.w3.org/2000/svg" xmlns:xlink="http://www.w3.org/1999/xlink" x="0px" y="0px"
	 viewBox="0 0 570 570" style="enable-background:new 0 0 570 570;" xml:space="preserve">
<style type="text/css">
	.st0{fill:#F26A21;stroke:#030303;stroke-width:7.4666;stroke-miterlimit:10;}
	.st1{fill:#F26A21;stroke:#030303;stroke-width:7.467;stroke-miterlimit:10;}
</style>
<circle id="XMLID_58_" class="st0" cx="283.3" cy="285.8" r="66.5"/>
<circle id="XMLID_57_" class="st1" cx="283.3" cy="285.8" r="66.5"/>
<path id="XMLID_56_" class="st1" d="M289.3,219.6c14.3,2.9,0-2.6-17.2,0.7c-3.5,0.1-9.8-2.3-14.8-6.9c-5-4.7-23-11.7-23.9,11.7
	c0.6,5.3,3.7,11.3,0,16.9c-3.7,5.6-9.6,14.3-9.6,14.3"/>
<path id="XMLID_55_" class="st1" d="M312.3,345.7c0,0-4.7,0.9-12.5,4.6s-9.1,10.7-18.5,15.4c-17.7,6.3-26-1.3-30.3-7.3
	c-4.3-6-2-13.2-3.6-16.6c-4-6.1,0,0-11.3-9.2"/>
<path id="XMLID_54_" class="st1" d="M322,231.7c0,0,4.1,4.7,8.5,7.3c4.4,2.6,20.7,2.6,29.7-6.7c9-9.3,23.2-10,27.7-9.3
	c8-0.2,20.7,18,10,31c-10.7,13-12.7,7.3-27.7,10s-20.3,4.5-21.5,10.3c-1.2,5.7,1,13.8,1,13.8"/>
</svg>
